<?xml version="1.0" encoding="UTF-8" standalone="no"?>
<svg
   version="1.2"
   width="690.86mm"
   height="389.22mm"
   viewBox="0 0 69086 38922"
   preserveAspectRatio="xMidYMid"
   fill-rule="evenodd"
   stroke-width="28.222"
   stroke-linejoin="round"
   xml:space="preserve"
   id="svg553"
   sodipodi:docname="novo.svg"
   inkscape:version="1.2.2 (732a01da63, 2022-12-09, custom)"
   xmlns:inkscape="http://www.inkscape.org/namespaces/inkscape"
   xmlns:sodipodi="http://sodipodi.sourceforge.net/DTD/sodipodi-0.dtd"
   xmlns="http://www.w3.org/2000/svg"
   xmlns:svg="http://www.w3.org/2000/svg"
   xmlns:ooo="http://xml.openoffice.org/svg/export"><sodipodi:namedview
   id="namedview555"
   pagecolor="#ffffff"
   bordercolor="#000000"
   borderopacity="0.25"
   inkscape:showpageshadow="2"
   inkscape:pageopacity="0.0"
   inkscape:pagecheckerboard="0"
   inkscape:deskcolor="#d1d1d1"
   inkscape:document-units="mm"
   showgrid="false"
   inkscape:zoom="0.4304659"
   inkscape:cx="1305.5622"
   inkscape:cy="735.24987"
   inkscape:window-width="1850"
   inkscape:window-height="1016"
   inkscape:window-x="0"
   inkscape:window-y="0"
   inkscape:window-maximized="1"
   inkscape:current-layer="layer2" />
 <defs
   class="ClipPathGroup"
   id="defs204">
  <clipPath
   id="presentation_clip_path"
   clipPathUnits="userSpaceOnUse">
   <rect
   x="0"
   y="0"
   width="69086"
   height="38922"
   id="rect198" />
  </clipPath>
  <clipPath
   id="presentation_clip_path_shrink"
   clipPathUnits="userSpaceOnUse">
   <rect
   x="69"
   y="38"
   width="68948"
   height="38845"
   id="rect201" />
  </clipPath>
 </defs>
 <defs
   class="TextShapeIndex"
   id="defs208">
  <g
   ooo:slide="id1"
   ooo:id-list="id3 id4 id5 id6 id7 id8 id9 id10 id11 id12"
   id="g206" />
 </defs>
 <defs
   class="EmbeddedBulletChars"
   id="defs240">
  <g
   id="bullet-char-template-57356"
   transform="scale(0.00048828125,-0.00048828125)">
   <path
   d="M 580,1141 L 1163,571 580,0 -4,571 580,1141 Z"
   id="path210" />
  </g>
  <g
   id="bullet-char-template-57354"
   transform="scale(0.00048828125,-0.00048828125)">
   <path
   d="M 8,1128 L 1137,1128 1137,0 8,0 8,1128 Z"
   id="path213" />
  </g>
  <g
   id="bullet-char-template-10146"
   transform="scale(0.00048828125,-0.00048828125)">
   <path
   d="M 174,0 L 602,739 174,1481 1456,739 174,0 Z M 1358,739 L 309,1346 659,739 1358,739 Z"
   id="path216" />
  </g>
  <g
   id="bullet-char-template-10132"
   transform="scale(0.00048828125,-0.00048828125)">
   <path
   d="M 2015,739 L 1276,0 717,0 1260,543 174,543 174,936 1260,936 717,1481 1274,1481 2015,739 Z"
   id="path219" />
  </g>
  <g
   id="bullet-char-template-10007"
   transform="scale(0.00048828125,-0.00048828125)">
   <path
   d="M 0,-2 C -7,14 -16,27 -25,37 L 356,567 C 262,823 215,952 215,954 215,979 228,992 255,992 264,992 276,990 289,987 310,991 331,999 354,1012 L 381,999 492,748 772,1049 836,1024 860,1049 C 881,1039 901,1025 922,1006 886,937 835,863 770,784 769,783 710,716 594,584 L 774,223 C 774,196 753,168 711,139 L 727,119 C 717,90 699,76 672,76 641,76 570,178 457,381 L 164,-76 C 142,-110 111,-127 72,-127 30,-127 9,-110 8,-76 1,-67 -2,-52 -2,-32 -2,-23 -1,-13 0,-2 Z"
   id="path222" />
  </g>
  <g
   id="bullet-char-template-10004"
   transform="scale(0.00048828125,-0.00048828125)">
   <path
   d="M 285,-33 C 182,-33 111,30 74,156 52,228 41,333 41,471 41,549 55,616 82,672 116,743 169,778 240,778 293,778 328,747 346,684 L 369,508 C 377,444 397,411 428,410 L 1163,1116 C 1174,1127 1196,1133 1229,1133 1271,1133 1292,1118 1292,1087 L 1292,965 C 1292,929 1282,901 1262,881 L 442,47 C 390,-6 338,-33 285,-33 Z"
   id="path225" />
  </g>
  <g
   id="bullet-char-template-9679"
   transform="scale(0.00048828125,-0.00048828125)">
   <path
   d="M 813,0 C 632,0 489,54 383,161 276,268 223,411 223,592 223,773 276,916 383,1023 489,1130 632,1184 813,1184 992,1184 1136,1130 1245,1023 1353,916 1407,772 1407,592 1407,412 1353,268 1245,161 1136,54 992,0 813,0 Z"
   id="path228" />
  </g>
  <g
   id="bullet-char-template-8226"
   transform="scale(0.00048828125,-0.00048828125)">
   <path
   d="M 346,457 C 273,457 209,483 155,535 101,586 74,649 74,723 74,796 101,859 155,911 209,963 273,989 346,989 419,989 480,963 531,910 582,859 608,796 608,723 608,648 583,586 532,535 482,483 420,457 346,457 Z"
   id="path231" />
  </g>
  <g
   id="bullet-char-template-8211"
   transform="scale(0.00048828125,-0.00048828125)">
   <path
   d="M -4,459 L 1135,459 1135,606 -4,606 -4,459 Z"
   id="path234" />
  </g>
  <g
   id="bullet-char-template-61548"
   transform="scale(0.00048828125,-0.00048828125)">
   <path
   d="M 173,740 C 173,903 231,1043 346,1159 462,1274 601,1332 765,1332 928,1332 1067,1274 1183,1159 1299,1043 1357,903 1357,740 1357,577 1299,437 1183,322 1067,206 928,148 765,148 601,148 462,206 346,322 231,437 173,577 173,740 Z"
   id="path237" />
  </g>
 </defs>
 
 <g
   inkscape:groupmode="layer"
   id="layer1"
   inkscape:label="Layer 1"><path
     fill="rgb(178,178,178)"
     stroke="none"
     d="M 22108,32470 L 22358,33279 23019,33250 23504,32882 23504,32470 22857,32103 22108,32470 Z"
     id="path249" /><path
     fill="rgb(42,96,153)"
     stroke="none"
     d="M 17005,24727 L 16993,24174 17282,23993 17799,23993 17582,24787 17005,24727 Z M 11024,18286 L 11362,16933 12024,16037 12994,15346 13949,15008 15434,14905 16595,15434 17374,16007 18109,16963 18374,17933 18271,20079 18153,21843 17315,22754 16331,22754 15228,22637 14390,22034 14919,21711 15934,20138 15816,18844 14170,18609 12744,18771 11362,18594 11054,18447 11024,18286 Z M 13494,23166 L 13546,23327 13582,23342 13861,23401 14390,23636 11833,25385 10701,25973 10422,26561 9863,27855 9099,28913 8540,30648 8379,31456 7849,31257 7438,31412 6938,31662 6424,31456 6879,30383 6938,29222 6953,27634 7232,26150 7688,25400 8599,24695 9452,23960 10201,23166 10951,23122 11862,23107 12641,23078 12979,23092 13312,23230 13494,23166 Z M 19998,19799 L 21188,18388 23415,18146 26679,17308 29876,16867 31948,16360 34814,15698 35652,15235 36137,14111 36600,14089 40849,13906 42422,13906 43421,13553 44495,12803 46097,11995 47787,11539 49477,11172 50771,10539 53108,9319 53607,9069 55283,9128 56268,9207 55974,9790 54386,10936 52093,12538 50506,13714 50594,13979 51638,13788 53798,13288 55195,12788 56459,12039 56674,11657 58193,12083 60398,12024 59619,12818 57194,14067 56606,14596 55430,15317 53607,16404 51946,17154 49653,18477 49198,18992 48257,19418 47257,19653 45346,20285 43465,21094 41613,21799 40569,22005 38820,22299 36645,22505 34087,22137 31897,22299 31338,22769 30383,22828 29971,22608 29957,22255 29854,22078 29104,22328 27958,23078 26546,23872 27325,24444 28810,25576 30251,27134 30486,28031 30221,28501 28369,30118 27281,31353 26091,32221 24253,32897 23886,33117 23607,32456 22813,32044 22783,31824 23930,30310 24753,29237 25385,28017 24988,27826 24092,27399 22989,27164 22210,26885 21107,26400 19946,25856 18741,25386 18021,24460 18271,23504 18873,22461 19270,20873 19998,19799 Z"
     id="path256" /><path
     fill="rgb(255,255,0)"
     stroke="none"
     d="M 21718,18544 L 20947,18059 19491,20727 18896,22336 18779,22310 18834,22337 18677,22817 18257,23370 17631,23635 16019,23995 14468,23502 13842,23442 13656,23274 13121,23168 12363,23080 11840,23197 10318,23080 9670,22793 9213,22372 9008,21915 9152,21265 9405,20532 9862,19714 10054,19738 10323,19935 10319,19912 10055,19537 10496,18876 11025,18479 11797,18853 12833,18721 14310,18699 15346,18743 16008,19272 15765,20639 14994,21610 13935,21940 13803,21830 14398,21014 14619,20419 14244,19757 13428,19427 11951,19339 11532,19669 11223,20331 11312,21698 10893,21742 10562,21147 10399,20319 10223,20772 9910,21578 10018,22059 10439,22143 10896,21940 12027,21940 14035,22167 15996,22973 17379,22672 18234,22186 18021,22138 18213,21410 18374,20219 18374,19095 18374,17684 17838,16118 17727,15104 17882,14443 18477,13561 19513,13098 21873,12569 25158,12039 27914,11621 31111,11224 31640,11400 32235,11797 32346,12436 32324,12988 32676,12943 34639,12547 35675,12833 36094,13914 35719,15281 34617,15744 32544,16361 29700,16824 24893,17728 21718,18544 Z"
     id="path263" /><path
     fill="rgb(129,212,26)"
     stroke="none"
     d="M 22177,32388 L 22321,33117 22802,33434 23127,33638 22754,34276 21888,35695 21443,36465 21203,37367 20481,37451 19916,37740 19435,38209 19146,37740 18749,37403 18268,37487 18052,36946 17859,36212 17523,36152 17703,35575 18172,34925 18208,34023 17739,33638 17691,33290 18725,33410 19724,33193 20325,32857 21624,32616 22177,32388 Z M 8890,32517 L 8811,33284 8308,33496 7011,33681 5979,33681 5773,33206 5761,32159 5989,31919 6567,31606 7517,31329 8274,31257 8226,32604 8890,32517 Z"
     id="path270" /><path
     fill="rgb(178,178,178)"
     stroke="none"
     d="M 3780,33904 L 4252,33517 5679,33035 5708,33319 4857,33678 3780,33904 Z"
     id="path277" /><path
     fill="rgb(178,178,178)"
     stroke="none"
     d="M 9118,31882 L 9147,32373 8608,32553 8145,32647 8173,32109 9118,31882 Z"
     id="path284" /><path
     fill="rgb(255,245,206)"
     stroke="none"
     d="M 11437,19483 L 11882,21468 12832,21877 13807,21648 14480,20999 14552,20169 14215,19628 13205,19327 11437,19483 Z"
     id="path291" /><path
     fill="rgb(255,0,0)"
     stroke="none"
     d="M 53314,8969 L 55959,9207 59029,8122 63897,6138 63024,5794 62098,5503 61489,4974 61357,4815 59717,5450 58288,6244 56515,7249 54980,7673 54028,7831 53314,8969 Z"
     id="path298" /><path
     fill="rgb(255,0,0)"
     stroke="none"
     d="M 56753,11562 L 58367,12171 61198,11906 66305,10610 68077,9763 66675,9366 65537,8837 65246,8122 61727,9472 60219,10001 58394,10107 57203,10239 56674,10874 56753,11562 Z"
     id="path305" /></g><g
   inkscape:groupmode="layer"
   id="layer2"
   inkscape:label="Layer 2"><path
     fill="#000000"
     stroke="none"
     d="m 16830,15369 c 239,331 348,359 704,203 81,-36 78,-88 73,-154 -19,-256 -449,-57 -427,-421 24,-393 501,-320 509,-466 7,-135 -103,-47 -153,-74 -450,-241 142,-834 231,-434 29,130 70,140 146,25 827,-1250 1865,-1121 5107,-1712 26,-4 72,-8 72,-16 30,-297 345,-147 473,-307 647,-812 570,-853 248,-895 -1162,-154 -1444,198 -1034,-334 37,65 55,136 147,130 1034,-65 1140,266 1236,-163 61,-274 -263,26 -316,-349 -109,-761 608,-805 81,-1956 -118,-257 -474,-219 -424,-371 27,-83 382,-37 568,317 462,878 0,1443 -66,1844 -55,334 332,90 251,523 -18,91 -34,207 96,200 135,-7 325,95 396,-108 47,-137 68,-181 173,-41 82,108 462,57 593,-78 195,-204 499,-205 351,-507 -108,-219 201,-561 487,-517 315,50 495,-141 635,-336 461,-646 433,-953 481,-1657 12,-180 -271,-339 -360,-625 -51,-166 -209,41 -268,-92 -47,-106 199,-190 251,-113 247,374 689,674 473,1231 -42,110 -50,238 -26,361 7,31 13,83 -2,92 -217,136 -192,372 -246,576 -116,437 -692,809 -871,749 -220,-74 -418,80 -397,304 18,195 -14,370 -177,501 -427,340 1332,-229 4218,-237 2695,-8 3076,-163 5335,-288 768,-43 1127,-705 2081,-761 3822,-223 3609,-217 3744,-204 -723,402 -3201,-115 -5001,857 -231,125 -451,229 -715,243 -1567,85 -3130,254 -4701,280 -1253,21 -2591,-43 -3978,265 -993,220 -1216,-1 -1459,159 -388,257 -1098,-161 -1230,425 -50,223 -236,420 -408,596 -45,47 -129,106 -94,173 0,0 7395,-1175 7616,-1112 871,248 1395,629 1245,1597 -28,174 74,145 169,130 2165,-343 2372,-590 3175,120 679,599 212,1054 639,1060 792,13 2853,-181 3545,-206 1666,-61 2639,223 4037,-843 2120,-1616 4141,-1089 7117,-2721 2030,-1113 1961,-1010 2069,-1359 276,-885 97,-945 791,-1160 866,-269 1305,118 3177,-996 1702,-1013 2130,-1254 4292,-2139 678,-277 108,470 640,756 1014,545 1055,198 2271,470 1257,282 -4851,2634 -5684,2998 -817,359 -1084,729 -1816,992 -1669,601 -1448,996 -2850,1660 -970,459 -646,612 -2420,1652 -28,17 -878,531 -826,644 69,150 5537,-876 5612,-2165 148,-2551 2067,-925 5540,-2315 5430,-2174 2962,-1073 3868,-458 1278,866 2075,629 2420,770 1052,430 -3898,1822 -4196,1882 -1584,320 -3653,1441 -4270,1642 -496,161 -1573,468 -2816,1323 -3134,2153 -4284,2513 -6091,3496 -1152,627 -1428,1383 -3025,1706 -2702,546 -3878,1511 -5499,1969 -115,32 -232,71 -327,153 162,504 12086,-310 20270,187 -168,59 -299,42 -425,39 -4302,-130 -7885,-46 -7896,-47 -3434,-103 -9337,369 -11214,103 -2228,-316 -5225,1129 -7868,338 -889,-267 -1107,-28 -2727,30 -546,19 -19,557 -695,730 -961,246 -1699,-142 -1662,-632 6,-87 82,-210 -24,-263 -519,-257 -640,646 -2784,1414 -218,77 -417,104 -216,288 708,650 639,254 1246,875 926,948 240,-231 2300,2315 768,948 -385,1765 -715,2052 -433,377 1335,-1 3390,577 1389,390 2983,296 3631,349 -186,151 -2866,-32 -3226,-137 -1759,-513 -2808,-422 -3223,-424 -639,-5 -817,-283 -1194,93 -704,701 -1032,1496 -2152,2288 -659,466 -755,339 -2552,1190 -424,201 -97,395 -316,602 -648,615 -944,302 -1187,859 -599,1374 -1067,1088 -1382,2555 -73,340 -353,1223 -667,674 -557,-975 -1194,1358 -1587,414 -186,-448 -271,-748 -686,-584 -371,147 -492,225 -625,94 -237,-232 106,-405 109,-947 3,-556 -512,-92 -697,-501 -147,-324 493,-644 662,-1113 320,-885 92,-990 -107,-1213 -58,-65 -413,-281 -274,-553 102,-199 281,-259 1116,-121 1078,178 784,-472 2586,-695 1408,-175 2087,-1692 2988,-2841 209,-266 411,-451 120,-450 -2069,7 -240,-170 -4195,-265 -2975,-72 -3556,-408 -4596,-286 -235,27 -469,30 -702,-39 132,-363 6403,452 9652,470 303,2 321,-504 678,-968 57,-74 16,-118 -61,-136 -525,-122 -736,-644 -1919,-651 -1205,-7 -1146,-788 -2062,-848 -867,-56 -924,-628 -1459,-651 -113,-5 -241,-16 -335,-71 -344,-201 -745,-229 -1104,-386 -28,-12 -1132,-639 -1605,-751 -779,-186 -982,-721 -1477,-740 -243,-10 -696,-249 -1076,14 -1646,1138 -1859,1394 -2640,1783 -710,354 -1227,1244 -813,1283 1594,146 4703,-4 4806,349 l 2,5 c -1024,-210 -2065,-164 -3100,-185 -2042,-41 -1955,-168 -2033,-7 -568,1173 -1223,1328 -1767,3779 -31,140 -38,964 427,794 131,-47 521,-341 697,164 64,184 -26,366 -212,430 -504,175 -535,214 -565,770 -28,543 -239,120 -361,492 -87,266 -252,456 -543,471 -376,21 -749,200 -1132,36 -22,-9 -54,-12 -75,-3 -446,177 -730,-163 -1066,-334 -166,-83 56,-364 -448,-195 -4821,1618 -4519,1628 -4579,1506 -71,-145 102,-234 464,-367 1038,-379 3095,-1310 4320,-1820 464,-193 -234,-737 539,-1066 172,-74 225,-314 327,-481 700,-1136 452,-2041 602,-4167 38,-534 -400,35 -1523,-380 -537,-198 -1235,151 -1521,-87 608,82 1223,-193 1830,76 372,165 772,54 1160,38 103,-4 99,-102 117,-175 303,-1243 474,-1253 1659,-2192 292,-232 1500,-1258 1102,-1396 -152,-53 -88,-330 -478,-408 -48,-9 -105,-74 -84,-114 91,-175 -44,-264 -130,-364 -123,-141 -72,-292 -61,-448 19,-299 -8,-611 144,-879 326,-573 228,-896 419,-1057 424,-359 851,-1267 1048,-1323 514,-148 -144,-458 946,-2084 811,-1208 2797,-1908 4035,-1601 438,108 843,297 1225,536 z m 5686,19057 c 0,0 2,3 3,2 z m 1647,-19112 -8,5 c 1,3 2,0 8,-5 z m 32926,-3965 c -5,138 347,167 352,242 16,233 211,95 400,139 541,124 1083,26 1625,16 55,-1 144,9 137,-90 -6,-88 2,-77 -979,-90 -34,0 -75,-11 -99,33 -62,112 -372,140 -403,28 -62,-223 -587,24 -1043,-287 3,3 7,6 10,9 z m -195,-205 c 4,1 8,2 13,2 -1,-1 -5,-1 -13,-2 z M 19922,25466 c 155,249 121,-74 552,370 261,270 877,545 870,318 -15,-538 1000,766 1395,847 2118,437 1428,93 2556,756 312,184 171,-54 989,-209 246,-47 496,-159 750,-24 55,29 145,44 140,113 -7,74 -100,68 -159,75 -274,29 -530,146 -809,155 -162,5 -198,64 -1039,998 -54,60 -147,129 -104,208 52,94 160,29 245,17 626,-84 2382,223 2944,103 131,-28 261,-19 395,10 559,123 720,-166 1372,-674 868,-677 -140,-1443 -816,-2315 -987,-1271 -2804,-2126 -3444,-2661 -640,-534 -1022,-1279 -655,-1379 151,-40 96,321 219,340 228,36 3388,-4573 3570,-4845 344,-516 -1288,-294 -1882,-169 -2889,610 -3001,465 -4525,1227 -284,142 -456,-26 -849,243 -2169,1482 -1128,1141 -2334,2558 -35,41 -67,87 -48,139 112,315 -127,547 -256,753 -151,240 -209,510 -335,753 -144,277 41,612 135,909 58,186 290,46 412,133 171,123 262,72 298,-129 7,-42 66,-152 96,-70 366,1006 222,454 282,1046 13,134 92,264 33,402 1,1 1,2 2,2 z m -897,-695 c 47,387 277,559 751,567 -360,-627 -267,-606 -751,-567 z m -2320,-4991 c 0,0 0,0 0,-1 -7,0 -14,0 -21,0 7,0 14,1 21,1 z m -1,-134 c -48,47 -20,88 -2,127 -9,-40 50,-79 2,-127 z m -83,131 c 1,3 3,6 4,9 0,-3 -1,-6 -1,-9 -1,0 -2,0 -3,0 z m 11540,10 c -2,-3 -4,-5 -6,-8 l 2,7 c 1,0 3,1 4,1 z m -6677,-2336 c 0,0 -1,0 -1,1 l 103,-16 c -34,5 -68,10 -102,15 z m 140,40 c -11,-18 -22,-36 -33,-54 -10,37 -5,61 33,54 z m -2247,-3934 c -177,51 -286,257 -504,219 -24,-4 -47,38 -41,75 27,182 -278,504 -405,389 -68,-62 -25,-172 30,-205 268,-158 379,-489 683,-604 72,-28 166,17 235,-72 -175,-124 -767,139 -1246,899 -368,582 354,527 1559,1056 104,46 219,69 242,-43 13,-67 2,-93 -458,-138 -444,-44 181,-525 207,-525 283,-7 533,-127 791,-222 66,-25 96,-60 59,-130 -679,-1264 -1110,-474 -1600,-115 92,-237 287,-397 447,-583 2,0 3,0 5,0 -1,0 -3,0 -4,-1 z m -449,585 -2,7 c 1,-3 2,-5 3,-8 0,1 -1,1 -1,1 z m 574,-583 -8,-8 4,8 c 1,0 3,0 4,0 z m -8845,5424 -10,-6 6,6 c 2,0 3,0 4,0 z M 61012,5401 c -2,-3 -4,-5 -6,-8 1,4 2,7 2,10 2,-1 3,-1 4,-2 z m -199,36 c 3,2 5,4 8,6 -1,-2 -2,-4 -3,-7 -2,1 -3,1 -5,1 z m -45661,17839 5,13 c -1,-4 -2,-9 -3,-13 -1,0 -2,0 -2,0 z m 16555,-2438 -9,-6 c -3,1 0,2 9,6 z m -192,-5633 c 4,-3 8,-7 12,-11 -4,3 -8,7 -11,10 -10,-2 -19,-3 -29,-4 10,2 19,4 28,5 z m -809,1359 c -3,-1 -5,-1 -6,-2 0,1 1,3 2,4 1,-1 3,-1 4,-2 z m 3097,-933 c -968,188 -1196,183 -1555,344 l -72,-8 c 24,3 48,6 72,9 15,-7 1036,-158 1360,-308 69,14 136,14 194,-36 12,1 24,3 35,5 -11,-2 -23,-4 -34,-6 z m -2688,2184 c 42,70 100,96 123,140 -11,-52 -22,-111 -123,-140 z m 133,176 c 51,47 94,113 187,77 -47,-82 -121,-71 -187,-77 0,0 0,0 0,0 z m -96,1826 c 102,39 93,-46 73,-77 -45,-71 -181,-9 -178,91 32,-21 63,-30 105,-14 z m -17,936 c 51,-15 110,-93 94,-102 -154,-96 155,-427 -211,-412 -47,2 -73,-74 -44,-126 41,-75 3,-144 -1,-216 -233,421 10,902 162,856 z m 991,-7930 c -204,30 -336,67 -454,152 126,-60 284,-14 454,-152 z m -562,144 c 0,4 0,9 0,14 35,-2 70,-4 105,-5 z m 15,5167 c 252,181 204,-70 275,-138 -107,10 -138,144 -275,138 z m 288,-143 c 26,-4 14,-26 0,0 z m 2278,-3122 c -212,51 -439,52 -629,181 215,-40 434,-70 629,-181 z m -2891,-1836 c -274,35 -564,-17 -816,134 60,-9 255,-41 816,-134 z m -819,135 c 0,0 -47,8 1,0 -22,-4 -42,-8 -1,0 z m -7382,3888 c 263,-98 495,0 526,-134 5,-22 2,-57 -12,-69 -45,-37 -6,-25 -513,199 -4,1 -7,1 -9,2 3,0 5,1 8,2 z m 7506,3345 c -71,225 86,331 93,472 55,-156 -58,-272 -93,-472 z m 93,476 c 68,146 -319,347 -300,543 138,-82 163,-338 389,-220 73,37 104,-270 -89,-323 0,0 0,0 0,0 z m -36,573 c -220,79 -354,287 -567,376 -47,20 -146,4 -120,80 35,105 470,-18 689,-460 l -9,-8 z m 3108,-6128 c -413,102 -827,204 -1240,306 170,-8 1166,-81 1240,-303 9,2 19,4 28,7 -9,-4 -19,-7 -28,-10 z m -4504,1176 c 37,-1 92,2 99,-39 32,-193 192,-223 342,-268 -546,-30 -607,-14 -600,50 24,251 -13,93 -2146,541 457,6 482,-62 594,20 563,-139 1125,-290 1711,-304 z m -2589,207 c -5,-26 -1889,301 -1879,406 9,104 392,38 501,10 1082,-271 1278,-127 1660,-339 -97,-10 -240,146 -282,-77 z m 21,344 c 322,-55 651,-74 978,-186 -52,-26 -85,-42 -118,-58 -286,81 -573,162 -860,244 z m -9830,3106 c 67,0 145,-37 190,44 41,74 -6,135 -43,194 -763,1257 284,418 528,-72 151,-304 -486,-178 -192,-836 48,-108 28,-118 -252,-164 -59,-10 -125,11 -84,77 126,206 -12,354 -104,506 -52,84 -68,160 -43,251 z m -806,1495 c 145,-143 270,-152 235,-230 -44,-98 -11,-259 -57,-271 -340,-84 34,-330 -309,-472 -62,-26 -442,598 -430,1509 3,253 372,126 285,-46 -76,-152 54,-91 276,-490 z m 5665,-6290 c -63,-50 96,-199 196,-127 160,115 81,-89 409,-261 119,-62 16,-109 -12,-116 -757,-185 -2107,1475 -838,1343 237,-25 460,212 196,413 -91,70 -73,160 38,142 342,-58 648,188 765,87 274,-237 1244,-43 1153,-578 -72,-420 -531,-1141 -898,-949 -188,98 -365,231 -631,305 139,-132 234,-222 329,-311 -206,2 -455,253 -707,52 z m 810,-141 c -5,-41 31,-94 -22,-119 -22,-10 -66,-4 -84,13 -61,54 13,67 35,96 30,39 -1,64 -18,92 44,-11 99,-13 89,-82 z M 58189,6449 c -2504,1618 -3214,1193 -3919,1501 -831,363 372,627 1585,381 2277,-464 2767,75 7577,-2258 l -20,-57 c -133,2 -4543,1573 -5389,1516 811,-269 4386,-1222 4700,-1501 192,-170 -281,-222 -529,-122 0,0 51,-64 -3641,1219 -82,28 -218,115 -253,6 -34,-105 129,-115 210,-140 2235,-701 2066,-776 3519,-1160 158,-42 186,-105 13,-182 -443,-196 -333,-492 -589,-377 -1214,542 -4103,2318 -4209,2033 -61,-163 1294,-543 1880,-998 600,-466 1320,-734 1956,-1141 73,-47 137,-110 219,-140 -414,85 -1993,699 -3110,1420 z m 3174,-1436 -8,-6 c 1,2 2,5 3,7 1,0 3,-1 5,-1 z m -1968,7346 -5,4 c 3,-1 7,-1 10,-2 -2,-1 -4,-1 -5,-2 z m -57,-85 c -1151,116 -1819,313 -2467,-274 -45,-41 -110,-135 -174,-53 -122,157 381,220 494,514 30,79 11,127 -57,115 -104,-18 -230,10 -308,-71 -238,-248 -476,-162 -734,-36 -274,133 -1724,1101 -5531,1602 -2228,294 -2709,2023 -4135,2011 0,0 -3195,135 -3195,135 -626,33 -1260,-43 -1883,10 -984,83 -1941,-32 -2897,-231 -426,-88 -77,283 -51,627 12,151 -116,163 -150,69 -102,-281 -331,-506 -366,-819 -15,-128 -89,-229 -208,-283 -2641,-1190 -1176,-101 -2840,335 4,266 271,327 361,511 262,535 544,1063 493,1689 -5,66 39,159 -67,166 -185,12 -105,-865 -352,-1249 -147,-228 -212,-502 -423,-699 -114,-107 -276,-85 -368,-162 -265,-223 -240,133 -531,231 -721,243 -1655,220 -1709,400 -22,75 935,828 120,1485 -305,246 -502,931 -220,1121 95,64 138,179 190,283 188,380 -84,677 -186,997 -198,618 -496,302 -853,1018 -20,40 -42,79 -22,128 36,86 471,391 558,363 276,-91 560,-18 839,-66 282,-49 576,-93 855,-85 873,26 1806,-1164 1932,-2270 53,-465 245,-535 247,-362 8,793 174,420 -392,1604 -113,236 -779,809 -819,968 2072,635 4121,306 6196,-63 -71,-71 -131,-76 -185,-69 -729,95 -1428,-189 -2151,-172 -418,10 -653,-552 -88,-705 55,-15 122,-57 153,10 76,161 -359,127 -305,342 29,118 158,174 274,175 315,1 614,99 920,138 3488,440 2321,-403 9084,-2459 1091,-332 720,-759 1660,-1265 1668,-900 897,-570 2660,-1275 528,-211 1108,-332 1572,-654 1977,-1376 2578,-1362 3211,-2659 36,-75 -5,-134 -62,-186 -156,-141 -61,-193 8,-191 141,6 74,328 275,275 71,-19 166,-132 209,-25 56,137 -389,193 -283,373 18,30 2249,-1026 2385,-1363 -488,-38 -433,210 -622,138 63,-16 99,-104 -62,-87 z m -22808,1920 c -179,-28 -283,33 -292,228 -9,196 -196,411 31,408 1014,-11 2123,797 2192,827 1259,545 3321,256 3912,237 3230,-103 -54,138 3202,-119 1012,-79 2932,-1266 3106,-1345 2408,-1090 4664,-3028 5556,-3609 292,-190 -74,-354 -86,-469 -40,-386 -392,-513 -620,-743 -36,-36 -70,-9 -105,6 -341,150 -849,-94 -917,194 -43,182 -165,212 -279,261 -3107,1348 -2552,1248 -4944,1750 -3369,708 -3192,2257 -5661,2251 -3739,-9 -3761,211 -5095,123 z m -20201,4365 c 546,16 1158,-794 1051,-1380 -55,-306 -232,-575 -283,-874 -278,-1628 -4455,-1888 -5584,618 -298,661 -646,1429 55,1584 125,28 158,-46 95,-112 -272,-290 116,-712 67,-1060 -11,-76 236,-170 186,-10 -762,2443 1723,559 3438,1305 489,213 730,-123 975,-71 z M 64013,9738 c 87,-210 1246,-445 1472,-479 495,-74 122,-225 70,-284 -435,-488 -301,-19 -1345,76 260,-213 1070,-375 953,-599 -46,-89 -140,-27 -207,-4 -3393,1196 -4233,1912 -5854,1781 -45,-4 -2871,-74 -1681,708 947,623 5861,535 8805,-665 452,-184 1474,-462 1474,-462 -645,-274 -1219,199 -1838,157 677,-371 749,-301 743,-396 -4,-69 -494,-357 -1258,-174 -446,107 -889,227 -1334,341 z M 10348,23419 c -284,404 -633,732 -1070,970 -270,148 -461,414 -723,562 -699,398 -991,1076 -1291,1756 -56,126 -18,191 129,227 211,52 2656,248 2795,-149 185,-526 356,-1055 422,-1612 9,-76 -15,-202 96,-195 202,13 -54,932 229,775 241,-133 493,-243 722,-399 3766,-2549 2054,-1533 1824,-2072 -3,-8 -37,-7 -55,-2 -151,41 -295,-11 -433,-50 -349,-99 -710,-89 -1048,-24 -1390,267 -1419,-41 -1597,213 z m 12765,8299 c -45,58 -140,109 -111,188 33,89 143,68 222,81 300,46 683,397 733,675 78,437 201,115 1514,-410 1954,-781 2309,-1762 3235,-2739 245,-259 -747,-119 -852,-129 -3959,-351 -2601,-420 -4741,2334 z m 6789,-13928 c -883,1393 -1708,2827 -2881,4012 -298,302 -411,724 -686,1039 -114,130 -188,262 -179,446 5,111 -67,239 73,302 409,184 291,-24 571,-134 500,-198 2604,-1301 2733,-1716 231,-750 510,-1487 935,-2390 61,-129 -45,-183 -95,-88 -35,65 -56,172 -151,129 -75,-33 -37,-137 -40,-212 -21,-530 376,-2423 -280,-1388 z M 7304,27039 c -259,-69 -268,1395 -262,1657 43,1787 -47,1741 -339,2664 -42,131 78,142 121,94 167,-186 409,-155 618,-220 158,-49 286,-210 482,-121 411,188 228,-168 376,-315 403,-400 170,-1079 933,-2146 302,-421 535,-869 737,-1340 195,-453 -174,-177 -1640,-171 -349,1 -680,-106 -1026,-102 z M 28851,14025 c 403,-224 -145,-350 -359,-313 -2212,383 -2798,473 -4301,741 475,-39 943,-119 1419,-103 3,19 7,38 10,58 -403,62 -805,124 -1207,187 128,68 256,10 400,70 -136,79 -271,53 -389,93 -364,124 142,45 359,1171 11,55 30,153 81,133 221,-83 472,295 672,-46 30,-50 505,-23 611,-50 3634,-912 3974,-233 3352,-1453 -129,-251 -188,-595 -648,-488 z m 4468,-842 c -726,316 -1523,105 -2267,318 h 430 c -880,264 -1215,83 -1031,400 518,890 216,1070 562,1030 1369,-159 4558,-778 4712,-475 46,90 -88,89 -104,156 163,28 164,28 205,-103 237,-761 -88,-1278 -733,-1719 -335,-229 -681,-28 -1833,155 -807,129 -1616,245 -2415,427 816,-167 1658,-9 2474,-189 z m -2187,-1929 c -453,60 -4108,639 -4303,669 -687,109 -780,130 -640,247 1269,1059 -1099,1033 3080,396 1330,-203 2810,-311 2839,-488 58,-352 -380,-473 -438,-576 -126,-227 -354,-195 -538,-248 z M 11110,21515 c -106,-145 -214,-287 -317,-434 -220,-315 -220,-1015 -22,-1344 440,-728 2077,-738 3047,-437 1254,388 1212,1683 121,2526 1972,-417 2093,-2628 1518,-2858 -1759,-702 -3038,605 -4344,-296 -87,-60 -107,-39 -312,627 -241,780 -458,1833 309,2216 z m 11641,-7675 c 142,-121 739,-147 1630,-358 372,-89 729,-238 1121,-227 284,8 -86,-1054 -750,-747 -546,253 -1131,274 -1706,328 -600,56 -1183,206 -1780,273 -99,10 -117,58 -54,141 502,656 369,783 581,725 847,-235 1030,71 1526,-140 -183,-77 -360,83 -568,5 z m -2237,20543 c 131,-27 248,60 303,-63 362,-804 1371,-914 1234,-1507 -31,-130 -52,-152 -163,-101 -767,354 -1106,-37 -2124,682 -591,417 -694,302 -1815,94 -48,-9 -109,-44 -140,11 -79,138 407,347 542,382 440,114 951,-46 1321,340 310,-36 595,74 842,162 z M 11999,19466 c -232,-3 -301,125 -316,340 -35,518 1525,84 1024,1033 -322,611 -428,701 -332,827 77,100 132,7 365,15 129,4 267,-60 267,-164 -1,-136 -148,-59 -234,-63 -496,-20 461,-536 537,-21 43,290 923,38 1069,-665 49,-233 -185,-146 -397,-38 -360,183 -262,-69 -663,62 -96,31 -241,20 -228,-91 23,-203 -114,-265 -225,-360 -386,-328 841,-333 989,-310 27,4 645,48 163,-261 -602,-386 -1226,-295 -2019,-304 z M 5922,33135 c 7,73 -48,154 16,219 15,15 68,13 87,-2 122,-94 44,-285 39,-341 -23,-313 55,-677 356,-599 153,40 -211,1351 89,1048 281,-285 75,-1205 295,-1220 126,-8 307,524 124,887 -175,347 548,39 308,-810 -19,-68 -96,-181 -10,-202 372,-88 473,-439 287,913 -28,208 46,252 199,178 95,-46 84,-124 49,-431 -69,-612 466,-1045 187,-1322 -200,-198 -293,163 -507,129 -375,-58 -391,414 -776,228 -393,-189 -85,534 -635,360 -159,-50 -202,17 -171,163 108,498 60,764 63,802 z M 16932,22693 c 191,-71 330,-247 532,-316 82,-29 158,-108 227,-167 425,-365 -18,-607 231,-1281 74,-199 210,-554 24,-477 -665,275 -263,155 -681,593 -126,132 -197,365 -463,289 -48,-13 -115,34 -130,96 -48,197 -365,702 -33,867 56,28 64,81 46,133 -82,234 108,210 247,263 z m 4892,12962 c -70,28 -103,42 -135,55 1,-285 188,-150 482,-699 -150,91 -230,309 -329,263 -92,-43 -51,-170 -103,-254 -35,-56 43,-90 97,-114 168,-74 306,-222 388,-352 256,-405 742,-658 485,-782 -376,-183 -686,564 -1136,738 -113,43 -249,175 -253,319 -8,278 -130,549 -119,802 13,322 -194,579 -154,900 24,193 -123,677 9,671 74,-3 96,-43 95,-128 -2,-342 242,-603 327,-923 41,-154 216,-304 346,-496 z m -2169,-1291 c -220,-48 -62,-47 -1322,1049 -27,24 -824,680 -507,642 963,-116 697,-679 2221,-1069 201,-52 383,-164 590,-208 111,-23 250,-202 -21,-256 -334,-65 -649,-238 -961,-158 z m -116,3586 c 189,-304 518,-470 622,-873 362,-1390 915,-747 965,-2145 3,-72 65,-187 -83,-179 -109,5 -244,57 -231,175 35,339 -218,178 -511,897 -220,539 -471,1065 -697,1601 -67,159 -100,335 -65,524 z M 56024,9377 c -388,101 -409,115 -411,76 -14,-259 -931,90 -2051,-224 -120,-34 -152,97 -27,113 76,10 204,10 206,69 10,240 251,236 357,368 31,37 52,133 122,97 248,-129 222,306 441,320 98,6 -34,247 169,161 98,-42 126,-133 188,-198 26,-26 535,-139 1006,-782 z M 20609,34970 c -138,38 -274,-8 -387,74 -268,196 -536,367 -728,671 -478,755 -1165,1110 -1209,1418 -102,727 1143,-1039 1628,-1274 386,-188 480,-579 696,-889 z m 9941,-15632 c 7,110 187,292 237,247 99,-90 239,-180 267,-293 302,-1217 -289,-904 -260,-1738 2,-80 84,-224 -22,-229 -122,-6 -93,152 -97,251 -38,912 -205,510 -125,1762 z m -9192,-2378 c -169,31 -239,-61 -287,-183 -51,-130 -153,-79 -246,-66 -399,58 264,1787 2337,1169 48,-15 122,-23 116,-80 -8,-87 -92,-34 -141,-46 -29,-7 -77,-7 -91,10 -386,475 -1830,96 -1910,-586 -15,-126 128,-16 222,-218 z m -280,17359 c 31,46 -25,146 68,169 74,19 165,0 213,-54 69,-77 -81,-129 -117,-282 -33,-133 211,-258 190,-126 -43,276 246,253 369,62 60,-95 122,-196 252,-216 344,-55 223,-741 6,-525 -331,329 -954,541 -981,972 z M 10335,20934 c -192,305 -504,689 -53,1097 121,109 233,26 305,-40 394,-363 66,-169 -252,-1057 z m 8075,14045 c 300,-147 768,-536 743,-655 -20,-99 -238,-3 -666,-94 -104,-22 -142,26 -138,124 19,481 -151,728 61,625 z m 2467,-22035 c 338,185 1763,-238 2645,-395 1223,-217 1407,-116 1402,-221 -8,-161 -4021,611 -4047,616 z m 2512,19919 c 10,-408 -699,-434 -691,-26 7,397 683,347 691,26 z m -3658,3587 c -19,-13 -38,-27 -56,-40 -845,909 -878,896 -757,960 416,218 233,356 813,-920 z M 13921,22356 c -107,12 -70,104 -66,168 36,552 -305,686 -125,793 333,198 620,-1007 191,-961 z m 20597,-7073 c 531,12 1029,58 1124,-465 -292,326 -773,156 -1124,465 z M 18993,35811 c -825,459 -945,480 -808,600 56,49 64,227 177,129 242,-211 496,-417 631,-729 z M 12025,22895 c -15,-424 161,-537 -73,-590 -91,-20 -151,8 -174,98 -141,561 259,795 247,492 z M 4040,33806 c 1743,-443 1678,-706 1476,-634 -505,179 -1003,371 -1476,634 z M 9931,22773 c 6,84 105,85 174,79 195,-16 177,-189 222,-314 153,-424 -431,-334 -396,235 z m 10815,13836 c -182,148 -501,679 -454,741 67,88 161,-19 246,2 137,34 117,-62 208,-743 z M 54466,8750 c -57,33 -159,-42 -158,59 1,196 278,-86 432,135 51,73 183,80 227,37 264,-264 659,-71 637,-238 -23,-170 -608,151 -1138,7 z m -31616,8793 c -54,-50 40,-61 -639,-33 -64,2 -160,-47 -182,44 -43,180 304,358 390,224 102,-161 274,-159 431,-235 z m 7839,4494 c -571,99 -106,151 -147,265 -38,107 -438,21 -380,188 20,55 91,41 117,23 153,-104 425,14 488,-266 11,-46 150,-35 110,-140 -33,-85 -118,-53 -188,-70 z m 1538,-6221 c -435,18 -860,109 -1293,133 -159,8 -196,218 28,166 422,-97 843,-198 1265,-299 z m -13324,-35 c -4,-29 -30,-422 -179,-385 -70,18 -47,54 -55,644 -2,89 76,133 129,145 73,15 54,-7 105,-404 z m 373,3113 c 20,-118 -41,-119 -457,-211 -154,-35 -210,95 -93,200 125,113 518,194 550,11 z M 8782,32299 c 95,-79 50,-217 -31,-201 -269,53 -493,52 -459,310 16,130 356,2 490,-109 z m 9676,-9430 c -1,-73 -846,-891 -257,77 74,120 255,-5 257,-77 z m -1542,698 c 50,165 316,164 219,-77 -163,-407 -190,-413 -246,-398 -127,32 -20,321 27,475 z m 15223,-3313 c -33,-38 -22,-109 -90,-113 -223,-12 -145,218 -266,368 -97,121 164,81 67,181 60,28 94,-13 132,-48 111,-105 -66,-322 157,-388 z m -14308,2995 c 84,142 200,50 137,-74 -245,-482 -259,-494 -312,-468 -135,67 97,411 175,542 z m 8265,-6094 c -484,55 -969,88 -1424,250 l 11,54 c 471,-101 942,-203 1413,-304 z m -9711,3121 c -252,-57 -313,61 -336,228 -24,183 155,171 160,34 4,-85 18,-115 110,-83 99,35 184,-37 190,-111 9,-113 -112,-63 -124,-68 z m 2335,1481 c -71,35 -223,-41 -213,107 13,188 460,250 443,13 -10,-129 -137,-100 -230,-120 z m 207,-704 c 403,-63 -374,-343 -411,-187 -28,117 126,126 411,187 z m 11683,-7682 c -451,80 -626,81 -505,186 132,113 454,14 505,-186 z m -11916,6246 c -12,57 1,58 483,169 142,33 171,-102 28,-133 -473,-102 -500,-84 -511,-36 z m -6493,1277 c -319,72 -183,359 -74,340 130,-22 140,-165 176,-267 27,-80 -45,-71 -102,-73 z m 6766,553 c 29,-95 -57,-105 -419,-169 -123,-22 -140,98 -29,128 400,107 432,94 448,41 z m 2050,-7777 c 59,-2 136,20 116,-61 -18,-80 -35,-190 -149,-191 -67,0 -162,-27 -160,117 3,174 148,76 193,135 z m -5468,9459 c -150,330 -225,430 -107,465 186,55 149,-273 107,-465 z m 2581,-5304 c -211,-36 -470,255 -326,301 46,16 111,39 134,-23 38,-103 127,-171 192,-278 z m 621,-1223 c -434,-168 -361,-277 -464,-159 -102,117 239,274 464,159 z m -9137,5268 c -375,79 -371,271 -283,333 66,46 74,2 283,-333 z m 6328,1488 c 25,71 -27,187 92,218 141,37 70,-333 -34,-359 -76,-20 -39,84 -58,141 z m 4926,-4188 c 235,-119 340,-315 440,-516 -171,144 -309,314 -440,516 z M 9666,20554 c -52,1 -80,30 -72,70 30,167 356,275 328,160 -33,-132 -170,-153 -256,-230 z m 21911,-399 c -128,18 -235,334 -106,313 226,-36 229,-331 106,-313 z m -9443,-2961 c -216,-57 -369,-16 -518,54 154,-34 324,51 518,-54 z m 10543,-1827 c -261,61 -539,1 -781,113 266,36 523,-53 781,-113 z m -13897,5146 c 232,130 482,80 406,31 -113,-73 -336,-122 -406,-31 z M 8616,33154 c 43,-319 56,-356 23,-392 -62,-66 -236,243 -23,392 z M 31182,15572 c -243,14 -333,-5 -341,115 -13,211 202,1 341,-115 z m -1548,833 c 246,-20 496,1 712,-129 z m -19199,3126 c 3,-144 -163,-156 -174,20 -3,55 13,111 75,113 89,3 81,-80 99,-133 z M 53691,8580 c 16,274 16,274 127,284 -164,-202 171,-193 -127,-284 z M 11120,22234 c -126,196 -158,352 -97,528 29,-157 58,-314 97,-528 z m -1373,112 c 24,-308 -352,303 -157,234 112,-40 115,-156 157,-234 z m 9167,-3966 c 176,151 384,77 303,24 -86,-55 -177,-93 -303,-24 z m 10353,-2816 c -5,-21 -9,-42 -13,-63 -162,30 -323,60 -485,90 3,14 5,29 8,43 163,-23 327,-46 490,-70 z m -14395,6311 c -182,-15 -68,166 29,184 101,19 125,-171 -29,-184 z m -4614,-1821 c -207,-322 -254,-178 -245,-152 34,93 105,141 245,152 z m 8208,2255 c 194,257 270,99 242,60 -60,-84 -155,-59 -242,-60 z m 13649,-5680 c -208,-254 -342,121 -91,85 46,-6 83,-31 91,-85 z m -1205,-1540 c -103,24 -94,215 14,190 38,-9 107,-9 83,-70 -17,-44 -24,-116 -97,-120 z m -16456,7839 c -32,104 -64,207 -95,311 99,-83 123,-185 95,-311 z M 25885,12651 c 82,-30 143,-204 6,-183 -160,25 -72,182 -6,183 z m -15843,7697 c -86,-67 -172,-133 -258,-200 53,105 96,218 258,200 z m 4819,2846 c 65,-90 107,-191 32,-306 -10,102 -21,204 -32,306 z m 4390,-6777 c -5,124 156,84 163,19 10,-95 -158,-173 -163,-19 z m -348,1533 c 116,56 193,72 272,39 -72,-65 -147,-81 -272,-39 z m -8191,4488 c -44,115 -121,227 -55,411 23,-174 39,-292 55,-411 z m 11272,-5490 c -119,-138 -328,95 -78,72 36,-3 75,-11 78,-72 z M 9515,21153 c 231,-71 -83,-195 -89,-61 -2,49 39,60 89,61 z m 9390,-1864 c 81,44 169,84 262,25 z m -1401,4868 c -4,-106 -128,-30 -128,34 1,58 133,84 128,-34 z m -966,-528 c 18,-83 39,-177 -50,-293 21,126 36,209 50,293 z m 5844,9113 c -98,146 55,198 71,161 31,-74 -21,-111 -71,-161 z M 19480,15992 c -5,-143 -242,-14 -72,32 31,8 62,10 72,-32 z m -6690,6755 c -50,38 -76,93 -27,202 13,-97 20,-150 27,-202 z m 9882,9692 c 111,-20 169,-61 245,-166 -114,42 -187,59 -245,166 z m -5394,-8008 c -9,-56 -131,-84 -126,0 5,74 106,76 126,0 z m 525,-6963 c 58,-131 -77,-141 -63,-44 3,27 17,47 63,44 z m 13557,3196 c 76,95 134,78 211,17 -71,-57 -126,-43 -211,-17 z m -6303,-3873 c -60,-44 -107,-64 -166,-21 44,47 89,65 166,21 z m -7449,-2663 c -118,20 -77,152 -35,125 47,-29 70,-69 35,-125 z m -8135,7409 c -96,-64 -155,70 -108,73 52,4 96,-11 108,-73 z m 9443,-1450 c 5,-108 -201,-35 -58,27 26,11 47,0 58,-27 z m 8988,18 c 93,-2 136,-33 213,-126 -106,46 -165,45 -213,126 z m -4274,-4709 c -22,-68 -122,-49 -114,-22 12,40 56,87 114,22 z m 10756,-544 c 71,-33 112,-19 125,-67 -38,-11 -71,-6 -125,67 z m -16848,8600 c -11,-12 -23,-25 -34,-37 -16,22 -28,9 12,64 7,-8 13,-16 22,-27 z M 56991,11086 c -20,-50 -31,-94 -114,-83 30,45 46,85 114,83 z m -32510,2843 c -17,19 -29,32 -41,45 36,18 16,24 76,-8 -11,-11 -21,-22 -35,-37 z m -11322,8752 c -6,-10 -10,-19 -15,-28 -33,29 -28,17 -10,49 8,-7 16,-14 25,-21 z m -723,52 c -6,-15 -11,-29 -16,-44 -27,30 -24,15 -15,56 9,-3 18,-7 31,-12 z m 5992,-7629 c -17,-8 -32,-16 -48,-21 -2,0 -16,25 -14,26 13,11 28,18 42,27 6,-9 11,-18 20,-32 z m -473,60 c -40,76 -49,52 5,101 39,-50 40,-23 -5,-101 z m 1754,-487 c -9,18 -10,12 6,24 l 10,-23 c -5,0 -11,0 -16,-1 z m 3619,-1967 c -13,-4 -21,-6 -30,-8 6,11 -2,13 30,8 z m 7856,4674 c 10,-6 20,-11 29,-16 -7,-12 -15,-25 -22,-37 -31,32 -26,19 -7,53 z m -12530,-96 c 6,0 12,-1 18,-1 -4,-39 -4,-30 -21,-29 1,10 2,20 3,30 z m 11570,-3039 c 20,-11 17,-4 10,-26 -8,5 -16,10 -24,15 z m -2240,1604 c -38,-17 -30,-12 -38,3 39,17 31,11 38,-3 z m 4926,-537 -11,7 15,3 z m -9020,-812 c -7,8 -13,15 -19,23 12,9 4,15 40,-4 -7,-6 -14,-13 -21,-19 z m -569,2709 c -8,-6 -14,-10 -19,-14 1,18 -1,14 19,14 z m 8860,617 c -9,-16 -4,-14 -22,-9 4,7 8,13 12,19 3,-3 6,-7 10,-10 z m -4289,2414 -12,4 9,8 z"
     id="path312"
     style="display:inline" /><path
     fill="rgb(0,0,0)"
     stroke="none"
     d="M 19087,11876 C 18926,12060 18595,12020 18554,11806 18489,11462 18193,11429 17962,11339 17630,11210 17333,11382 17060,11562 16927,11650 16927,11991 17053,12101 17318,12333 16391,12909 16843,11602 16976,11218 17270,11416 17237,11239 17222,11158 17145,11204 17092,11207 15350,11304 15943,11086 15325,11303 14982,11423 14624,11402 14279,11390 12274,11318 10914,11578 10191,11623 8652,11718 8403,11366 7218,11354 7070,11352 4732,11471 3904,11158 3709,11085 3608,11181 3608,11181 3474,10969 3054,11176 3043,10992 3024,10668 4283,11280 5478,11157 5611,11144 5705,11264 5842,11248 6930,11124 7744,11197 8361,11328 9762,11625 9816,11463 12787,11231 13859,11147 15385,11418 15318,10977 15271,10676 15606,10813 15639,10764 15662,10730 15655,10636 15735,10703 15782,10743 15797,10806 15762,10861 15419,11396 17628,10624 18655,11478 18768,11572 18865,11546 18963,11462 19523,10982 19426,11167 19938,11528 19964,11546 20127,11759 20039,11821 19886,11929 19991,11718 19479,11343 19317,11224 19060,11706 18784,11717 18746,11719 18739,11816 18821,11834 18901,11853 18984,11861 19087,11876 L 19087,11876 Z"
     id="path314" /><path
     fill="rgb(0,0,0)"
     stroke="none"
     d="M 62853,27929 C 53476,27491 57279,28076 54132,27691 54132,27691 46246,27298 46246,27298 46246,27298 42091,26981 42091,26981 41979,26974 41949,26837 42095,26840 42095,26840 44033,27082 46826,27184 46826,27184 54306,27578 54306,27578 55991,27873 56743,27427 58925,27617 60358,27743 61395,27682 62866,27880 62861,27896 62857,27912 62853,27929 L 62853,27929 Z"
     id="path316" /><path
     fill="rgb(0,0,0)"
     stroke="none"
     d="M 18254,8617 C 18050,8710 17950,8953 18025,9187 18272,9957 17395,9763 17418,10432 17430,10789 17446,10803 17391,10816 17212,10859 17283,10339 17303,10191 17333,9954 16971,10082 17146,9756 17165,9721 17216,9683 17238,9706 17404,9877 17407,9693 17453,9610 17617,9318 17464,9967 17744,9701 17883,9568 18050,9450 17868,9209 17715,9006 18097,8658 17882,8590 17731,8542 17930,8241 18047,8239 18141,8237 18069,8345 18106,8408 18263,8296 18441,8281 18626,8302 18668,8306 18740,8296 18751,8272 18871,8002 19194,7953 19344,7719 19493,7487 19756,7514 19974,7441 20030,7423 20068,7555 19985,7573 19686,7636 19459,7796 19275,8040 19229,8102 19093,8000 19012,8090 18942,8166 18903,8213 19041,8261 19406,8389 19655,8687 19956,8911 20058,8988 19963,9098 19859,9032 18651,8263 18878,8531 18540,8552 18462,8646 18346,8575 18254,8617 Z M 18518,8553 C 18514,8554 18511,8559 18508,8562 18518,8559 18529,8556 18539,8553 18532,8553 18525,8553 18518,8553 Z"
     id="path318" /><path
     fill="rgb(0,0,0)"
     stroke="none"
     d="M 25090,2811 C 25366,2544 25555,2183 26016,2133 26390,2093 26694,2276 27032,2348 27344,2414 27563,2031 27992,2359 28256,2561 28039,2158 28229,2117 28391,2082 28492,2201 28376,2360 28164,2652 28787,2650 28433,3250 28075,3855 27616,3959 26736,4485 26509,4622 26834,4881 26730,4941 26600,5016 26307,4611 26686,4368 27624,3765 28144,3739 28387,3000 28501,2655 27504,2035 27282,2594 27247,2681 27197,2616 27159,2636 27015,2715 27106,2516 27013,2505 26445,2439 26141,1950 25321,2671 25254,2730 25207,2822 25090,2811 L 25090,2811 Z M 28216,2282 C 28224,2275 28236,2268 28238,2260 28239,2254 28225,2238 28218,2239 28210,2239 28202,2251 28194,2258 28201,2266 28208,2274 28216,2282 L 28216,2282 Z"
     id="path320" /><path
     fill="rgb(0,0,0)"
     stroke="none"
     d="M 38954,27086 C 38054,27231 37233,26572 34631,26884 34242,26930 34407,26883 33067,26919 31885,26951 32078,26352 32384,26593 33062,27124 35156,26275 37954,26873 38665,27024 38800,26928 38954,27086 L 38954,27086 Z"
     id="path322" /><path
     fill="rgb(0,0,0)"
     stroke="none"
     d="M 21162,2681 C 21336,2205 21361,1652 21890,1359 22002,1297 22099,1225 22144,1088 22253,752 22624,929 22560,1136 22538,1208 22617,1189 22653,1178 23009,1071 23378,1452 23516,1070 23549,978 23656,978 23729,947 23786,1019 23668,1081 23736,1115 23880,1185 24000,882 24085,981 24132,1035 24058,1095 24025,1148 23978,1224 23814,1223 23859,1335 23881,1389 24018,1395 24102,1423 24236,1469 24363,1532 24469,1628 24921,2032 25046,1952 25000,2061 24945,2188 24597,1969 24513,1868 24110,1382 22910,1287 22255,1388 21893,1444 21667,1706 21509,2018 21398,2238 21316,2474 21221,2702 21201,2695 21182,2688 21162,2681 L 21162,2681 Z"
     id="path324" /><path
     fill="rgb(0,0,0)"
     stroke="none"
     d="M 40851,10322 C 41500,10205 42155,10305 42808,10289 45037,10238 45852,10049 46776,10039 46657,10258 42355,10596 40851,10322 L 40851,10322 Z"
     id="path326" /><path
     fill="rgb(0,0,0)"
     stroke="none"
     d="M 20094,3958 C 20095,3957 20096,3956 20097,3955 20097,3955 20096,3956 20094,3958 Z M 20876,3527 C 21661,3578 21668,3356 21934,3697 22168,3999 22368,3968 22467,4056 22694,4259 22906,4481 23206,4585 23248,4600 23278,4656 23308,4697 23398,4816 23283,4884 23211,4790 23124,4677 22994,4635 22871,4581 22836,4566 22780,4557 22770,4531 22599,4084 22038,4130 21802,3762 21670,3556 21642,3712 20984,3688 20308,3662 19861,4793 19838,4985 19831,5041 19767,5003 19726,5003 19676,4655 20123,3940 20097,3955 20286,3785 20743,3518 20876,3527 Z M 19721,5003 L 19726,5008 C 19726,5006 19726,5005 19726,5003 19724,5003 19722,5003 19721,5003 Z"
     id="path328" /><path
     fill="rgb(0,0,0)"
     stroke="none"
     d="M 16182,12877 C 16251,12825 16294,12940 16306,12935 16403,12900 16498,12991 16606,12900 16887,12662 17209,12490 17584,12440 18239,12352 18102,12025 18930,12752 18972,12789 19055,12831 18985,12905 18933,12961 18880,12916 18834,12879 18002,12216 18200,12568 17533,12656 17239,12694 16998,12839 16752,12977 16564,13083 16692,13360 16579,13371 16409,13388 16618,13092 16328,13208 16086,13304 16065,12967 16182,12877 L 16182,12877 Z"
     id="path330" /><path
     fill="rgb(0,0,0)"
     stroke="none"
     d="M 27961,4160 C 28372,4130 28437,4683 28915,4759 29124,4792 29288,4959 29500,5019 29644,5060 29583,5245 29574,5345 29546,5654 29603,5957 29603,6263 29603,6809 28974,6705 29291,6559 29395,6512 29459,6433 29455,6321 29418,5103 29413,5111 29344,5106 29074,5088 28900,4851 28628,4815 28344,4777 28277,4289 27964,4263 27911,4258 27818,4280 27822,4209 27826,4121 27923,4169 27961,4160 L 27961,4160 Z"
     id="path332" /><path
     fill="rgb(0,0,0)"
     stroke="none"
     d="M 19721,5003 C 19721,5004 19721,5004 19720,5005 19722,5006 19724,5007 19726,5008 19726,5008 19721,5003 19721,5003 Z M 19127,6793 C 19554,7314 17738,6401 19585,5003 19636,4964 19676,4986 19720,5005 19707,5231 18398,5901 19127,6793 Z"
     id="path334" /><path
     fill="rgb(0,0,0)"
     stroke="none"
     d="M 15668,14304 C 15675,13993 16177,13631 16514,13685 16922,13750 17015,13537 17054,13753 17079,13890 16980,13781 16945,13805 16899,13836 16836,13845 16788,13875 16690,13938 16615,13953 16500,13875 16225,13690 16247,14026 16129,14062 15627,14219 16034,14707 15853,14746 15763,14765 15727,14691 15721,14617 15711,14502 15701,14388 15668,14304 L 15668,14304 Z"
     id="path336" /><path
     fill="rgb(0,0,0)"
     stroke="none"
     d="M 29532,3013 C 29472,2569 30316,2168 30963,2956 31129,3158 31045,3382 31055,3599 31059,3683 30884,3676 30905,3550 30963,3214 30737,3006 30560,2774 30482,2672 30044,2615 29888,2694 29747,2766 29629,2867 29532,3013 L 29532,3013 Z"
     id="path338" /><path
     fill="rgb(0,0,0)"
     stroke="none"
     d="M 25707,6257 C 26060,6009 25937,6285 26512,6143 26605,6120 26666,6148 26739,6230 27086,6621 27684,6258 27694,6708 27694,6752 27800,6798 27702,6841 27628,6874 27538,6836 27533,6763 27512,6391 26849,6716 26555,6293 26541,6273 26493,6259 26470,6267 26228,6358 25994,6221 25707,6257 L 25707,6257 Z"
     id="path340" /><path
     fill="rgb(0,0,0)"
     stroke="none"
     d="M 22280,10065 C 22277,10171 22137,10157 22157,10051 22200,9819 22083,9616 22033,9402 21961,9087 21751,8899 21436,8826 21372,8811 21290,8809 21281,8713 21902,8533 22296,9283 22280,10065 Z"
     id="path342" /><path
     fill="rgb(0,0,0)"
     stroke="none"
     d="M 17749,27029 C 18536,27049 19323,27016 20110,27051 19323,27133 18537,27172 17749,27029 L 17749,27029 Z"
     id="path344" /><path
     fill="rgb(0,0,0)"
     stroke="none"
     d="M 22123,5493 C 22373,5643 22731,5422 22883,5619 22929,5679 22914,5777 22794,5733 22566,5650 22323,5700 22087,5673 21844,5645 21780,6111 21687,6084 21546,6044 21798,5501 22123,5493 L 22123,5493 Z"
     id="path346" /><path
     fill="rgb(0,0,0)"
     stroke="none"
     d="M 20845,10499 C 20688,10449 20574,10418 20492,10312 20325,10097 20157,10089 19968,10281 19939,10311 19921,10373 19867,10327 19711,10193 20199,9793 20495,10095 20609,10211 20709,10341 20845,10499 L 20845,10499 Z"
     id="path348" /><path
     fill="rgb(0,0,0)"
     stroke="none"
     d="M 18626,4822 C 18799,4758 18928,4665 18983,4491 18994,4457 18987,4404 19046,4421 19237,4474 18859,5052 18538,4975 18327,4924 18382,4673 18524,4639 18717,4592 18579,4751 18626,4822 L 18626,4822 Z"
     id="path350" /><path
     fill="rgb(0,0,0)"
     stroke="none"
     d="M 28588,7846 C 28854,7734 29198,7357 29149,7049 29094,6711 29755,6953 28788,7871 28727,7928 28661,7919 28588,7846 L 28588,7846 Z"
     id="path352" /><path
     fill="rgb(0,0,0)"
     stroke="none"
     d="M 20774,1032 C 20770,1133 20373,1365 20290,1321 20134,1236 20261,1007 20413,900 20536,814 20490,1062 20663,984 20717,959 20763,968 20774,1032 L 20774,1032 Z"
     id="path354" /><path
     fill="rgb(0,0,0)"
     stroke="none"
     d="M 21331,1563 C 21121,1921 20709,1678 20782,1478 20810,1400 20986,1400 21016,1518 21086,1796 21401,1199 21637,1128 21549,1182 21347,1536 21331,1563 L 21331,1563 Z"
     id="path356" /><path
     fill="rgb(0,0,0)"
     stroke="none"
     d="M 20944,10536 C 20945,10535 20947,10534 20949,10533 20948,10533 20948,10532 20948,10532 L 20944,10536 Z M 21433,10451 C 21579,10559 21758,10651 21734,10880 21729,10938 21724,11013 21650,11009 21581,11006 21609,10931 21597,10884 21560,10736 21305,10400 21150,10568 21061,10664 21000,10633 20949,10533 21145,10442 21256,10320 21433,10451 Z"
     id="path358" /><path
     fill="rgb(0,0,0)"
     stroke="none"
     d="M 18158,5650 C 18571,5728 18139,6115 17980,6105 17675,6086 17956,5611 18158,5650 L 18158,5650 Z M 18150,5835 C 18055,5750 18017,5907 18091,5883 18111,5877 18126,5855 18150,5835 L 18150,5835 Z"
     id="path360" /><path
     fill="rgb(0,0,0)"
     stroke="none"
     d="M 21941,2904 C 21963,2983 21575,3250 21471,3052 21396,2909 21496,2770 21601,2659 21653,2605 21768,2655 21722,2761 21624,2991 21900,2759 21941,2904 L 21941,2904 Z"
     id="path362" /><path
     fill="rgb(0,0,0)"
     stroke="none"
     d="M 19472,1368 C 19500,1561 19729,1245 19751,1480 19767,1638 19315,1985 19331,1595 19335,1503 19325,1396 19472,1368 L 19472,1368 Z"
     id="path364" /><path
     fill="rgb(0,0,0)"
     stroke="none"
     d="M 22463,2039 C 22519,2106 22373,2214 22494,2234 22597,2251 22711,2201 22724,2061 22741,1888 22955,1896 22893,2125 22838,2326 22291,2520 22306,2236 22311,2136 22350,2055 22463,2039 L 22463,2039 Z"
     id="path366" /><path
     fill="rgb(0,0,0)"
     stroke="none"
     d="M 24390,1162 C 24232,1071 24414,849 24475,896 24666,1044 24692,729 24846,809 25042,912 24534,1247 24390,1162 L 24390,1162 Z"
     id="path368" /><path
     fill="rgb(0,0,0)"
     stroke="none"
     d="M 17946,7690 C 17813,7660 17887,7427 18023,7448 18362,7498 18198,7154 18354,7197 18670,7281 18087,7721 17946,7690 L 17946,7690 Z"
     id="path370" /><path
     fill="rgb(0,0,0)"
     stroke="none"
     d="M 18588,2883 C 18610,2784 18616,2679 18720,2622 18767,2734 18982,2618 18968,2789 18950,2995 18632,3214 18588,2883 L 18588,2883 Z"
     id="path372" /><path
     fill="rgb(0,0,0)"
     stroke="none"
     d="M 14610,8359 C 14851,8271 14766,7971 14895,8048 14928,8068 14977,8122 14946,8158 14847,8277 14785,8438 14611,8479 14449,8517 14385,8352 14656,7981 14697,7925 14749,8007 14712,8075 14665,8160 14586,8233 14610,8359 L 14610,8359 Z"
     id="path374" /><path
     fill="rgb(0,0,0)"
     stroke="none"
     d="M 16466,9899 C 16576,9936 16397,10044 16480,10107 16596,10195 16716,9967 16807,9995 16834,10003 16882,10185 16600,10258 16123,10380 16309,9846 16466,9899 L 16466,9899 Z"
     id="path376" /><path
     fill="rgb(0,0,0)"
     stroke="none"
     d="M 15094,14024 C 15372,14030 15290,14400 15033,14434 14822,14462 14876,14018 15094,14024 L 15094,14024 Z"
     id="path378" /><path
     fill="rgb(0,0,0)"
     stroke="none"
     d="M 20095,6297 C 20171,6348 20252,6167 20277,6294 20298,6394 20207,6514 20098,6559 19869,6654 19924,5996 20099,6064 20208,6107 20111,6149 20095,6297 L 20095,6297 Z"
     id="path380" /><path
     fill="rgb(0,0,0)"
     stroke="none"
     d="M 16998,7574 C 17193,7599 17019,8028 16833,8019 16603,8007 16800,7549 16998,7574 L 16998,7574 Z"
     id="path382" /><path
     fill="rgb(0,0,0)"
     stroke="none"
     d="M 16031,6108 C 16118,6197 16078,6281 16077,6368 16190,6305 16181,6212 16281,6214 16340,6215 16357,6393 16220,6478 16045,6587 15749,6644 16031,6108 L 16031,6108 Z"
     id="path384" /><path
     fill="rgb(0,0,0)"
     stroke="none"
     d="M 16407,14049 C 16439,14141 16296,14175 16335,14267 16430,14334 16445,14098 16542,14176 16663,14272 16398,14589 16204,14418 16035,14269 16340,14034 16407,14049 L 16407,14049 Z"
     id="path386" /><path
     fill="rgb(0,0,0)"
     stroke="none"
     d="M 29603,1203 C 30079,1285 29788,1600 29675,1540 29574,1485 29531,1334 29384,1325 29420,1216 29519,1225 29603,1203 L 29603,1203 Z"
     id="path388" /><path
     fill="rgb(0,0,0)"
     stroke="none"
     d="M 22202,11929 C 22049,11932 22002,11796 22166,11770 22560,11707 22068,11322 22401,11421 22566,11469 22465,11924 22202,11929 L 22202,11929 Z"
     id="path390" /><path
     fill="rgb(0,0,0)"
     stroke="none"
     d="M 32158,1761 C 32149,2010 31497,2173 31638,1916 31783,1652 31915,2006 32049,1730 32066,1695 32104,1668 32158,1761 L 32158,1761 Z"
     id="path392" /><path
     fill="rgb(0,0,0)"
     stroke="none"
     d="M 13959,10493 C 13916,10671 13502,10989 13482,10737 13463,10493 13610,10319 13678,10360 13770,10417 13662,10400 13610,10618 13755,10638 13661,10681 13959,10493 L 13959,10493 Z"
     id="path394" /><path
     fill="rgb(0,0,0)"
     stroke="none"
     d="M 16834,15369 C 16833,15368 16832,15368 16830,15367 16830,15367 16829,15368 16829,15368 16830,15369 16834,15369 16834,15369 Z M 16789,14904 C 16905,14923 16699,15080 16841,15137 16968,15188 16978,14880 17097,14949 17266,15046 16865,15333 16830,15367 16686,15277 16619,14877 16789,14904 Z"
     id="path396" /><path
     fill="rgb(0,0,0)"
     stroke="none"
     d="M 20099,3953 C 20097,3953 20096,3954 20095,3954 20095,3955 20094,3957 20094,3958 20094,3958 20099,3953 20099,3953 Z M 19647,3936 C 19593,3671 20146,3672 20095,3954 19833,4039 19680,4099 19647,3936 Z"
     id="path398" /><path
     fill="rgb(0,0,0)"
     stroke="none"
     d="M 9842,9385 C 9871,9256 10022,9378 9982,9471 9960,9523 9946,9574 9997,9607 10114,9683 10206,9418 10307,9469 10343,9488 10299,9710 10151,9717 9894,9730 9801,9563 9842,9385 L 9842,9385 Z"
     id="path400" /><path
     fill="rgb(0,0,0)"
     stroke="none"
     d="M 9090,15269 C 9128,15366 9036,15491 9182,15490 9283,15490 9373,15444 9351,15311 9336,15221 9418,15203 9460,15279 9582,15506 9194,15736 9038,15562 8955,15469 8976,15367 9090,15269 L 9090,15269 Z"
     id="path402" /><path
     fill="rgb(0,0,0)"
     stroke="none"
     d="M 19775,2372 C 19513,2378 19509,2117 19833,2072 19868,2067 19998,2199 19998,2239 19995,2375 19851,2341 19775,2372 L 19775,2372 Z"
     id="path404" /><path
     fill="rgb(0,0,0)"
     stroke="none"
     d="M 15566,8114 C 15588,8316 15355,8477 15491,8565 15597,8634 15663,8493 15708,8433 15772,8349 15858,8404 15800,8509 15663,8759 15150,8739 15421,8324 15458,8267 15498,8212 15566,8114 L 15566,8114 Z"
     id="path406" /><path
     fill="rgb(0,0,0)"
     stroke="none"
     d="M 15486,9704 C 15536,9750 15681,9687 15644,9831 15567,10135 15276,10077 15316,9858 15332,9766 15363,9684 15486,9704 L 15486,9704 Z"
     id="path408" /><path
     fill="rgb(0,0,0)"
     stroke="none"
     d="M 20712,4855 C 20752,4753 20846,4762 20812,4884 20799,4930 20755,4991 20813,5020 20931,5079 20936,4811 21027,4867 21090,4906 20968,5189 20782,5170 20641,5156 20661,4989 20712,4855 L 20712,4855 Z"
     id="path410" /><path
     fill="rgb(0,0,0)"
     stroke="none"
     d="M 15154,12171 C 15099,12173 15031,12118 15104,12044 15200,11946 15336,11880 15349,11719 15349,11710 15390,11696 15411,11699 15640,11726 15259,12168 15154,12171 L 15154,12171 Z"
     id="path412" /><path
     fill="rgb(0,0,0)"
     stroke="none"
     d="M 14646,10138 C 14768,9953 14776,9906 14829,9938 14920,9993 14751,10198 14629,10247 14378,10348 14373,10002 14521,9957 14652,9918 14554,10068 14646,10138 L 14646,10138 Z"
     id="path414" /><path
     fill="rgb(0,0,0)"
     stroke="none"
     d="M 17983,13306 C 18195,13393 18239,13399 18212,13472 18160,13607 17999,13440 17917,13484 17867,13510 17828,13598 17759,13520 17730,13488 17756,13290 17983,13306 L 17983,13306 Z"
     id="path416" /><path
     fill="rgb(0,0,0)"
     stroke="none"
     d="M 20793,8148 C 21184,8451 21123,9105 21006,8786 20929,8580 20834,8379 20793,8148 L 20793,8148 Z"
     id="path418" /><path
     fill="rgb(0,0,0)"
     stroke="none"
     d="M 16797,6742 C 16867,6819 16946,6584 17005,6746 17051,6869 16544,7158 16607,6889 16630,6795 16659,6696 16797,6742 L 16797,6742 Z"
     id="path420" /><path
     fill="rgb(0,0,0)"
     stroke="none"
     d="M 16865,9212 C 16725,9579 16514,9481 16502,9264 16499,9213 16565,9138 16569,9154 16615,9353 16782,9140 16865,9212 L 16865,9212 Z"
     id="path422" /><path
     fill="rgb(0,0,0)"
     stroke="none"
     d="M 29389,1989 C 29386,2127 29095,2275 29059,1999 29034,1813 29392,1850 29389,1989 L 29389,1989 Z"
     id="path424" /><path
     fill="rgb(0,0,0)"
     stroke="none"
     d="M 30548,1584 C 30382,1913 30729,1573 30713,1720 30698,1859 30413,2009 30371,1813 30339,1667 30496,1458 30548,1584 L 30548,1584 Z"
     id="path426" /><path
     fill="rgb(0,0,0)"
     stroke="none"
     d="M 20126,2701 C 20075,2801 20283,2974 20027,3010 19951,3021 19871,3021 19865,2929 19853,2756 20015,2757 20126,2701 L 20126,2701 Z"
     id="path428" /><path
     fill="rgb(0,0,0)"
     stroke="none"
     d="M 15514,13496 C 15230,13662 15023,13523 15195,13317 15225,13281 15302,13257 15300,13303 15293,13455 15439,13421 15514,13496 L 15514,13496 Z"
     id="path430" /><path
     fill="rgb(0,0,0)"
     stroke="none"
     d="M 20302,11916 C 20303,11916 20304,11916 20306,11917 20306,11915 20306,11914 20307,11913 L 20302,11916 Z M 20717,12272 C 20642,12327 20631,12227 20601,12189 20472,12023 20254,12060 20306,11917 20716,11998 20822,12196 20717,12272 Z"
     id="path432" /><path
     fill="rgb(0,0,0)"
     stroke="none"
     d="M 30093,2224 C 29982,2490 29557,2395 29850,2068 29911,2149 30002,2188 30093,2224 L 30093,2224 Z"
     id="path434" /><path
     fill="rgb(0,0,0)"
     stroke="none"
     d="M 16088,11835 C 15913,11803 15998,11566 16180,11547 16314,11533 16313,11792 16088,11835 L 16088,11835 Z"
     id="path436" /><path
     fill="rgb(0,0,0)"
     stroke="none"
     d="M 11807,12963 C 11608,13302 11993,13071 12006,13178 12031,13384 11337,13273 11807,12963 L 11807,12963 Z"
     id="path438" /><path
     fill="rgb(0,0,0)"
     stroke="none"
     d="M 22805,10218 C 22651,10494 22408,10485 22455,10318 22490,10193 22646,10236 22725,10156 22750,10131 22797,10160 22805,10218 L 22805,10218 Z"
     id="path440" /><path
     fill="rgb(0,0,0)"
     stroke="none"
     d="M 12002,14498 C 11905,14653 11899,14748 12110,14784 12151,14791 12174,14845 12119,14861 11982,14902 11646,14886 12002,14498 L 12002,14498 Z"
     id="path442" /><path
     fill="rgb(0,0,0)"
     stroke="none"
     d="M 14317,13908 C 14244,14057 13969,14158 13999,14021 14029,13887 14163,13900 14253,13853 14285,13836 14313,13861 14317,13908 L 14317,13908 Z"
     id="path444" /><path
     fill="rgb(0,0,0)"
     stroke="none"
     d="M 16532,8755 C 16540,8608 16827,8617 16809,8763 16798,8856 16526,8875 16532,8755 L 16532,8755 Z"
     id="path446" /><path
     fill="rgb(0,0,0)"
     stroke="none"
     d="M 31612,1236 C 31569,1317 31665,1471 31493,1484 31366,1494 31312,1380 31612,1236 L 31612,1236 Z"
     id="path448" /><path
     fill="rgb(0,0,0)"
     stroke="none"
     d="M 14219,12749 C 14213,12699 14232,12653 14287,12653 14405,12655 14373,12776 14418,12838 14470,12910 14246,12973 14219,12749 L 14219,12749 Z"
     id="path450" /><path
     fill="rgb(0,0,0)"
     stroke="none"
     d="M 22167,11368 C 21872,11376 22305,10972 22289,11218 22284,11294 22239,11347 22167,11368 L 22167,11368 Z"
     id="path452" /><path
     fill="rgb(0,0,0)"
     stroke="none"
     d="M 20453,7690 C 20663,7723 20704,7962 20621,7936 20512,7903 20462,7823 20453,7690 L 20453,7690 Z"
     id="path454" /><path
     fill="rgb(0,0,0)"
     stroke="none"
     d="M 30454,1084 C 30576,1079 30581,1225 30406,1255 30303,1273 30270,1148 30454,1084 L 30454,1084 Z"
     id="path456" /><path
     fill="rgb(0,0,0)"
     stroke="none"
     d="M 29013,3500 C 28949,3499 28943,3457 28944,3410 28946,3253 29124,3264 29101,3357 29087,3413 29099,3490 29013,3500 L 29013,3500 Z"
     id="path458" /><path
     fill="rgb(0,0,0)"
     stroke="none"
     d="M 21637,1128 C 21637,1128 21637,1128 21637,1128 21637,1128 21636,1128 21636,1129 21636,1129 21637,1128 21637,1128 Z M 21751,912 C 21782,980 21705,990 21683,1030 21666,1062 21652,1095 21637,1128 21432,932 21731,868 21751,912 Z"
     id="path460" /><path
     fill="rgb(0,0,0)"
     stroke="none"
     d="M 23133,514 C 23062,607 22952,513 22984,492 23038,456 23088,459 23133,514 L 23133,514 Z"
     id="path462" /><path
     fill="rgb(0,0,0)"
     stroke="none"
     d="M 16724,6489 C 16775,6537 16752,6581 16731,6633 16678,6584 16671,6541 16724,6489 L 16724,6489 Z"
     id="path464" /><path
     fill="rgb(0,0,0)"
     stroke="none"
     d="M 21200,2896 C 21150,2941 21130,2901 21187,2864 21191,2874 21195,2884 21200,2896 L 21200,2896 Z"
     id="path466" /><path
     fill="rgb(0,0,0)"
     stroke="none"
     d="M 21281,8713 C 21275,8713 21268,8712 21262,8712 21268,8714 21274,8714 21281,8713 21281,8713 21281,8713 21281,8713 Z M 21135,8704 C 21194,8662 21226,8703 21262,8712 21225,8710 21186,8707 21135,8704 Z"
     id="path468" /><path
     fill="rgb(0,0,0)"
     stroke="none"
     d="M 19849,10710 C 19843,10687 19857,10681 19865,10706 19860,10707 19854,10709 19849,10710 L 19849,10710 Z"
     id="path470" /><path
     fill="rgb(0,0,0)"
     stroke="none"
     d="M 15448,27405 C 15450,27406 15451,27407 15452,27409 15452,27409 15451,27409 15451,27410 15450,27410 15448,27405 15448,27405 Z M 15472,27424 C 15473,27414 15473,27405 15474,27395 15467,27399 15460,27404 15452,27409 15459,27414 15466,27419 15472,27424 Z"
     id="path472" /><path
     fill="rgb(0,0,0)"
     stroke="none"
     d="M 20948,10532 L 20938,10526 C 20945,10537 20944,10536 20948,10532 L 20948,10532 Z"
     id="path474" /><path
     fill="rgb(0,0,0)"
     stroke="none"
     d="M 20250,11871 C 20246,11871 20242,11870 20238,11870 20247,11876 20246,11876 20250,11871 L 20250,11871 Z"
     id="path476" /><path
     fill="rgb(0,0,0)"
     stroke="none"
     d="M 20307,11913 C 20235,11861 20246,11875 20246,11875 20264,11889 20283,11903 20302,11916 20302,11916 20307,11913 20307,11913 L 20307,11913 Z"
     id="path478" /><path
     fill="rgb(0,0,0)"
     stroke="none"
     d="M 58364,13004 C 58172,13351 57778,12980 58251,12881 58344,12862 58318,12967 58364,13004 L 58364,13004 Z"
     id="path480" /><path
     fill="rgb(0,0,0)"
     stroke="none"
     d="M 57194,12851 C 57265,12713 57419,12760 57367,12821 57321,12876 57259,12859 57194,12851 L 57194,12851 Z"
     id="path482" /><path
     fill="rgb(0,0,0)"
     stroke="none"
     d="M 33385,21996 C 33311,21907 33422,21915 33419,21953 33419,21966 33401,21978 33385,21996 L 33385,21996 Z"
     id="path484" /><path
     fill="rgb(0,0,0)"
     stroke="none"
     d="M 59395,12359 C 59394,12364 59393,12368 59392,12373 59392,12370 59391,12366 59391,12363 59390,12363 59395,12359 59395,12359 L 59395,12359 Z"
     id="path486" /><path
     fill="rgb(0,0,0)"
     stroke="none"
     d="M 24432,21951 C 24197,22330 23762,21947 21782,22492 21602,22542 21105,22525 20718,22953 20091,23649 20449,22321 21594,22238 21927,22213 23798,21804 24432,21951 L 24432,21951 Z"
     id="path488" /><path
     fill="rgb(0,0,0)"
     stroke="none"
     d="M 64639,10287 C 63884,10486 63156,10815 62351,10710 63119,10593 63871,10390 64639,10287 L 64639,10287 Z"
     id="path490" /><path
     fill="rgb(0,0,0)"
     stroke="none"
     d="M 63764,9869 C 63288,10106 62768,10185 62254,10289 62739,10086 63242,9946 63764,9869 L 63764,9869 Z"
     id="path492" /><path
     fill="rgb(0,0,0)"
     stroke="none"
     d="M 61483,10276 C 61665,10104 61900,10033 62125,9945 61917,10067 61736,10241 61483,10276 L 61483,10276 Z"
     id="path494" /><path
     fill="rgb(0,0,0)"
     stroke="none"
     d="M 65319,10158 C 65319,10161 65320,10163 65320,10165 65322,10164 65323,10163 65325,10162 L 65319,10158 Z M 64787,10358 C 64951,10222 65167,10282 65320,10165 65340,10305 64902,10371 64787,10358 Z"
     id="path496" /><path
     fill="rgb(0,0,0)"
     stroke="none"
     d="M 63793,9218 C 63792,9220 63790,9222 63789,9223 63791,9223 63794,9223 63796,9222 L 63793,9218 Z M 63562,9323 C 63627,9247 63708,9234 63789,9223 63709,9322 63706,9322 63562,9323 Z"
     id="path498" /><path
     fill="rgb(0,0,0)"
     stroke="none"
     d="M 63796,9222 C 63798,9220 63799,9218 63800,9217 63798,9217 63795,9218 63793,9218 63793,9218 63796,9222 63796,9222 Z M 63817,9213 C 63812,9214 63806,9215 63800,9217 63807,9204 63805,9208 63817,9213 Z"
     id="path500" /><path
     fill="rgb(0,0,0)"
     stroke="none"
     d="M 65325,10162 C 65320,10164 65316,10166 65312,10168 65314,10165 65317,10162 65319,10159 65319,10158 65325,10162 65325,10162 L 65325,10162 Z"
     id="path502" /><path
     fill="rgb(0,0,0)"
     stroke="none"
     d="M 26869,14363 C 26869,14363 26868,14363 26868,14364 26868,14364 26869,14364 26869,14364 L 26869,14363 Z M 24985,14701 C 25610,14571 26225,14393 26868,14364 26793,14458 25217,14772 24985,14701 Z"
     id="path504" /><path
     fill="rgb(0,0,0)"
     stroke="none"
     d="M 28591,14033 C 28102,14185 27643,14293 27136,14303 27284,14182 28434,13964 28591,14033 L 28591,14033 Z"
     id="path506" /><path
     fill="rgb(0,0,0)"
     stroke="none"
     d="M 26764,14176 C 27011,14062 27273,14053 27536,14052 27292,14178 27018,14113 26764,14176 L 26764,14176 Z"
     id="path508" /><path
     fill="rgb(0,0,0)"
     stroke="none"
     d="M 25807,14294 C 25944,14201 26096,14215 26306,14220 26114,14338 25959,14305 25807,14294 L 25807,14294 Z"
     id="path510" /><path
     fill="rgb(0,0,0)"
     stroke="none"
     d="M 26869,14364 L 26868,14374 C 26869,14373 26869,14363 26869,14364 L 26869,14364 Z"
     id="path512" /><path
     fill="rgb(0,0,0)"
     stroke="none"
     d="M 34082,13149 C 33940,13213 33793,13222 33587,13221 33779,13127 33926,13106 34082,13149 L 34082,13149 Z"
     id="path514" /><path
     fill="rgb(0,0,0)"
     stroke="none"
     d="M 34587,13075 C 34587,12927 35003,12958 34922,13036 34819,13135 34701,13081 34587,13075 L 34587,13075 Z"
     id="path516" /><path
     fill="rgb(0,0,0)"
     stroke="none"
     d="M 29468,11675 C 28971,11831 28458,11906 27939,11945 28438,11801 28944,11694 29468,11675 L 29468,11675 Z"
     id="path518" /><path
     fill="rgb(0,0,0)"
     stroke="none"
     d="M 29920,11662 C 30184,11574 30449,11498 30730,11565 30470,11674 30190,11639 29920,11662 L 29920,11662 Z"
     id="path520" /><path
     fill="rgb(0,0,0)"
     stroke="none"
     d="M 26829,12132 C 27093,12055 27356,11980 27638,12024 27376,12111 27103,12125 26829,12132 L 26829,12132 Z"
     id="path522" /><path
     fill="rgb(0,0,0)"
     stroke="none"
     d="M 31384,11605 C 31254,11660 31130,11642 30967,11599 31134,11535 31260,11524 31384,11605 L 31384,11605 Z"
     id="path524" /><path
     fill="rgb(0,0,0)"
     stroke="none"
     d="M 26659,12192 C 26596,12243 26551,12236 26491,12210 26539,12137 26586,12143 26659,12192 L 26659,12192 Z"
     id="path526" /><path
     fill="rgb(0,0,0)"
     stroke="none"
     d="M 21508,15626 C 21593,15634 21556,15715 21580,15757 21628,15841 21505,15959 21432,15763 21410,15702 21455,15659 21508,15626 L 21508,15626 Z"
     id="path528" /><path
     fill="rgb(0,0,0)"
     stroke="none"
     d="M 18800,14294 C 18788,14305 18776,14316 18764,14327 18743,14296 18736,14312 18778,14265 18784,14274 18790,14282 18800,14294 L 18800,14294 Z"
     id="path530" /><path
     fill="rgb(0,0,0)"
     stroke="none"
     d="M 18928,14142 C 18930,14145 18932,14149 18933,14153 18931,14152 18929,14150 18926,14149 18926,14149 18928,14142 18928,14142 L 18928,14142 Z"
     id="path532" /><path
     fill="rgb(0,0,0)"
     stroke="none"
     d="M 55014,9865 C 55128,9752 55224,9722 55328,9707 55253,9776 55177,9844 55014,9865 L 55014,9865 Z"
     id="path534" /><path
     fill="rgb(0,0,0)"
     stroke="none"
     d="M 54994,10054 C 54996,10058 54997,10063 54998,10067 55005,10061 55011,10054 55017,10047 55008,10051 55006,10051 54994,10054 L 54994,10054 Z"
     id="path536" /><path
     fill="rgb(0,0,0)"
     stroke="none"
     d="M 55017,10047 C 55014,10049 55012,10050 55010,10051 55010,10050 55017,10047 55017,10047 L 55017,10047 Z"
     id="path538" /><path
     fill="rgb(0,0,0)"
     stroke="none"
     d="M 16062,21613 C 16048,21626 16035,21639 16022,21652 15934,21665 15798,21914 15716,21829 15632,21743 15977,21537 16003,21518 16043,21491 16058,21569 16062,21613 L 16062,21613 Z"
     id="path540" /></g>
</svg>
